<svg version="1.1" id="Layer_1" xmlns="http://www.w3.org/2000/svg" xmlns:xlink="http://www.w3.org/1999/xlink" x="0px" y="0px"
	 width="100%" viewBox="0 0 824 150" enable-background="new 0 0 824 150" xml:space="preserve">
<path fill="#FEFEFE" opacity="1.000000" stroke="none" 
	d="
M603.000000,151.000000 
	C402.000031,151.000000 201.500046,151.000000 1.000054,151.000000 
	C1.000036,101.000031 1.000036,51.000061 1.000018,1.000067 
	C275.666595,1.000045 550.333191,1.000045 824.999878,1.000022 
	C824.999878,50.999935 824.999878,100.999870 824.999939,150.999908 
	C751.166687,151.000000 677.333313,151.000000 603.000000,151.000000 
M194.869904,69.573097 
	C191.522339,60.360336 188.256149,51.116314 184.740982,41.967945 
	C184.203293,40.568584 182.586487,38.705666 181.347214,38.608578 
	C176.411835,38.221924 171.428360,38.449280 166.266586,38.449280 
	C162.394257,61.613468 158.595810,84.335594 154.756485,107.302299 
	C160.851181,107.302299 166.272736,107.302299 171.966797,107.302299 
	C173.922913,94.865891 175.845901,82.639999 177.768906,70.414108 
	C183.085999,81.651329 187.588531,92.883568 191.825668,104.215042 
	C192.821762,106.878914 194.171768,107.619926 196.906967,107.676559 
	C199.965515,107.739876 201.188034,106.553558 202.214828,103.813339 
	C206.426437,92.573738 210.909500,81.435860 215.292679,70.260551 
	C215.577271,70.309151 215.861847,70.357742 216.146439,70.406342 
	C218.067474,82.688110 219.988495,94.969872 221.920227,107.320015 
	C227.790131,107.320015 233.217239,107.320015 239.151810,107.320015 
	C235.295685,84.279060 231.493637,61.561111 227.714996,38.983086 
	C211.515167,36.487160 211.064453,36.744244 205.851120,50.998810 
	C204.652939,54.274948 203.421448,57.538876 202.215988,60.812370 
	C200.591080,65.224983 198.976517,69.641418 196.986496,75.067917 
	C196.029221,72.704796 195.547409,71.515396 194.869904,69.573097 
M643.176636,106.880386 
	C660.956116,98.892532 669.551941,83.381706 666.031921,65.638817 
	C662.510559,47.889069 645.915588,35.845882 626.538696,36.978096 
	C609.007446,38.002460 593.940674,52.634659 592.673950,69.866013 
	C590.709290,96.592041 615.940674,115.473091 643.176636,106.880386 
M357.106323,93.492569 
	C357.106323,98.070305 357.106323,102.648041 357.106323,107.208145 
	C363.271088,107.208145 368.670624,107.208145 374.645325,107.208145 
	C374.645325,97.643089 374.645325,88.420418 374.645325,79.064804 
	C383.320221,79.064804 391.412262,79.064804 399.955200,79.064804 
	C399.955200,88.519455 399.955200,97.770950 399.955200,107.290642 
	C405.825378,107.290642 411.245514,107.290642 416.943604,107.290642 
	C416.943604,84.357910 416.943604,61.639744 416.943604,38.710602 
	C411.241455,38.710602 405.821350,38.710602 399.951447,38.710602 
	C399.951447,47.565563 399.951447,56.151508 399.951447,64.815445 
	C391.267334,64.815445 383.038208,64.815445 374.266632,64.815445 
	C374.266632,55.911949 374.266632,47.336300 374.266632,38.759514 
	C368.286957,38.759514 362.862152,38.759514 357.106354,38.759514 
	C357.106354,56.887241 357.106354,74.690994 357.106323,93.492569 
M518.776245,81.784233 
	C518.776245,90.227417 518.776245,98.670601 518.776245,107.269470 
	C524.806335,107.269470 530.228455,107.269470 535.643616,107.269470 
	C535.643616,84.249374 535.643616,61.523708 535.643616,38.809891 
	C529.898621,38.809891 524.500671,38.809891 518.564209,38.809891 
	C518.564209,47.746838 518.564209,56.320282 518.564209,64.772354 
	C509.773102,64.772354 501.539581,64.772354 493.014648,64.772354 
	C493.014648,55.935165 493.014648,47.472225 493.014648,38.854534 
	C487.183167,38.854534 481.663696,38.854534 476.159576,38.854534 
	C476.159576,61.875690 476.159576,84.478981 476.159576,107.281464 
	C481.843323,107.281464 487.264801,107.281464 493.152649,107.281464 
	C493.152649,97.751541 493.152649,88.491028 493.152649,78.865761 
	C501.248871,78.865761 508.882843,78.810104 516.513184,78.952095 
	C517.273804,78.966255 518.012146,80.183250 518.776245,81.784233 
M700.232849,38.436619 
	C691.945312,38.436619 683.657715,38.436619 675.134888,38.436619 
	C675.134888,61.647499 675.134888,84.356827 675.134888,107.297119 
	C680.801331,107.297119 686.216125,107.297119 692.198669,107.297119 
	C692.198669,99.011917 692.198669,90.984062 692.198669,82.956207 
	C694.250061,83.711281 695.255615,84.868286 696.051270,86.155098 
	C699.809326,92.233032 703.444458,98.388298 707.284424,104.413368 
	C708.090027,105.677437 709.533630,107.340347 710.752686,107.399918 
	C716.957275,107.703140 723.184692,107.539795 730.229858,107.539795 
	C723.461792,98.306396 717.316223,89.922310 711.062012,81.390030 
	C717.224670,78.437386 721.395203,74.234131 723.053223,67.780380 
	C727.392700,50.888927 718.932068,39.509094 700.232849,38.436619 
M58.329762,114.965744 
	C61.777191,112.990051 65.224617,111.014351 68.305374,109.248795 
	C73.168831,111.568779 77.755424,114.358696 82.723068,115.983742 
	C89.978973,118.357361 96.187767,114.677963 97.809273,107.182976 
	C98.672882,103.191154 98.749901,98.898827 98.384399,94.813484 
	C98.101944,91.656456 99.784126,89.620644 101.884262,90.080765 
	C111.107719,92.101570 113.434456,87.451065 114.748665,79.470528 
	C115.699753,73.695084 115.861290,69.360336 110.961296,65.184715 
	C108.093437,62.740814 104.685997,60.845905 101.312790,59.108944 
	C99.083389,57.960964 98.224060,56.828873 98.427795,54.171356 
	C98.717171,50.396599 98.707062,46.473324 97.996231,42.772682 
	C96.341293,34.156960 89.285835,30.293053 81.109642,33.472363 
	C77.588013,34.841747 74.430969,37.128101 71.035034,38.853703 
	C69.988586,39.385441 68.171097,40.071487 67.613472,39.604366 
	C65.188835,37.573257 62.654480,35.422359 60.996552,32.788418 
	C58.783455,29.272501 55.061050,27.177189 51.858829,29.187700 
	C44.052540,34.088882 37.018009,39.846691 38.824337,50.473175 
	C39.770584,56.039875 37.924892,58.620457 32.819305,60.847176 
	C27.161158,63.314880 22.057722,67.290550 21.952686,74.510246 
	C21.850048,81.564941 27.071672,84.882301 32.157642,88.180946 
	C32.851379,88.630890 33.624096,88.963722 34.374363,89.321136 
	C40.048233,92.024124 40.694828,95.017876 36.703972,100.142960 
	C33.555855,104.185814 34.549778,108.438377 39.199467,110.823166 
	C40.067146,111.268181 41.175220,111.509819 41.761372,112.196243 
	C46.263077,117.468185 51.654263,117.667320 58.329762,114.965744 
M287.641022,93.935722 
	C288.821106,97.569710 289.896149,101.243431 291.246033,104.813210 
	C291.645660,105.870102 292.789642,107.377602 293.643829,107.412201 
	C299.355194,107.643578 305.080475,107.532394 311.356812,107.532394 
	C303.128357,84.812675 295.258911,62.949726 287.189819,41.160706 
	C286.737427,39.939163 284.691315,38.664474 283.297272,38.554810 
	C278.992798,38.216213 274.633972,38.617397 270.317413,38.367161 
	C267.169830,38.184696 265.647247,39.171654 264.597931,42.308155 
	C261.172729,52.546516 257.358704,62.654911 253.686340,72.810440 
	C249.580475,84.164658 245.465988,95.515755 241.101089,107.570122 
	C246.786041,107.570122 251.735687,107.390274 256.663818,107.638176 
	C259.577698,107.784752 260.723419,106.594025 261.551727,103.980560 
	C264.614288,94.317223 267.879028,84.717697 271.098999,75.104645 
	C272.661835,70.438972 274.293701,65.796455 276.288910,59.996426 
	C280.235321,71.897858 283.769867,82.557304 287.641022,93.935722 
M752.849548,107.565323 
	C757.464661,107.565323 762.079834,107.565323 767.035034,107.565323 
	C767.035034,98.198631 767.216187,89.398117 766.956299,80.610634 
	C766.832031,76.408241 767.917969,73.007607 770.373291,69.592400 
	C777.520081,59.651489 784.362427,49.491673 791.977905,38.471699 
	C784.703918,38.471699 778.457642,38.336330 772.227905,38.596653 
	C771.108337,38.643433 769.826477,40.154694 769.014160,41.275734 
	C765.509338,46.112255 762.151367,51.055126 758.435181,56.397388 
	C754.729126,51.092876 751.294312,46.052147 747.700012,41.127804 
	C746.896240,40.026646 745.562134,38.617554 744.423096,38.571747 
	C738.201355,38.321533 731.964417,38.452618 724.842346,38.452618 
	C729.630371,45.384434 733.340637,51.947590 738.188538,57.521294 
	C747.656860,68.407234 751.991882,80.523964 749.918518,94.915443 
	C749.472473,98.011513 749.678528,101.242111 749.950073,104.379059 
	C750.045715,105.483971 751.235901,106.494125 752.849548,107.565323 
M569.639099,53.857319 
	C574.756958,53.857319 579.874817,53.857319 585.177490,53.857319 
	C585.177490,48.519539 585.177490,43.656597 585.177490,38.841461 
	C572.254456,38.841461 559.733093,38.841461 547.194519,38.841461 
	C547.194519,61.848934 547.194519,84.439011 547.194519,107.260422 
	C559.944214,107.260422 572.489563,107.260422 585.261780,107.260422 
	C585.261780,102.050179 585.261780,97.156387 585.261780,91.860649 
	C578.189758,91.860649 571.427307,91.860649 564.503967,91.860649 
	C564.503967,79.070511 564.503967,66.686745 564.503967,54.101238 
	C566.078552,54.009212 567.377869,53.933273 569.639099,53.857319 
M351.018890,48.392570 
	C351.018890,45.254627 351.018890,42.116680 351.018890,38.824326 
	C335.485413,38.824326 320.318878,38.824326 305.217407,38.824326 
	C305.217407,43.991879 305.217407,48.739784 305.217407,53.955296 
	C309.937714,53.955296 314.352661,53.955296 319.245361,53.955296 
	C319.245361,71.976303 319.245361,89.525368 319.245361,107.189331 
	C325.291534,107.189331 330.829987,107.189331 336.893250,107.189331 
	C336.893250,89.249512 336.893250,71.705742 336.893250,53.714119 
	C341.836395,53.714119 346.256256,53.714119 350.826202,53.714119 
	C350.903625,51.959351 350.961273,50.652763 351.018890,48.392570 
M440.869690,107.569260 
	C445.493988,107.569260 450.118317,107.569260 455.219452,107.569260 
	C455.219452,89.432426 455.219452,71.851692 455.219452,53.705414 
	C460.255829,53.705414 464.820648,53.705414 469.430542,53.705414 
	C469.430542,48.389313 469.430542,43.652588 469.430542,38.754616 
	C454.058899,38.754616 439.001587,38.754616 423.881653,38.754616 
	C423.881653,43.942654 423.881653,48.790905 423.881653,54.044907 
	C428.755127,54.044907 433.182953,54.044907 437.954987,54.044907 
	C437.954987,56.097496 437.954987,57.732048 437.954987,59.366604 
	C437.955048,74.024902 437.900757,88.683723 438.042114,103.340660 
	C438.055725,104.750206 439.285675,106.148018 440.869690,107.569260 
M267.949249,98.391457 
	C270.628754,103.806450 274.643555,105.673607 279.435852,103.733543 
	C283.839081,101.950989 286.132507,96.790665 284.532104,92.266876 
	C282.971802,87.856621 278.554169,85.263618 274.409454,86.325294 
	C269.135132,87.676323 266.627563,91.933289 267.949249,98.391457 
M570.482605,78.967201 
	C573.793640,82.393723 577.935303,83.513573 581.593689,80.535378 
	C583.822205,78.721245 585.510864,75.219414 585.807434,72.309097 
	C586.201294,68.443497 583.647522,64.880562 579.634033,64.507835 
	C576.713867,64.236641 572.894714,65.168243 570.742859,67.028542 
	C567.260010,70.039345 567.484192,74.369385 570.482605,78.967201 
z"/>
<path fill="#395D71" opacity="1.000000" stroke="none" 
	d="
M194.967743,69.949547 
	C195.547409,71.515396 196.029221,72.704796 196.986496,75.067917 
	C198.976517,69.641418 200.591080,65.224983 202.215988,60.812370 
	C203.421448,57.538876 204.652939,54.274948 205.851120,50.998810 
	C211.064453,36.744244 211.515167,36.487160 227.714996,38.983086 
	C231.493637,61.561111 235.295685,84.279060 239.151810,107.320015 
	C233.217239,107.320015 227.790131,107.320015 221.920227,107.320015 
	C219.988495,94.969872 218.067474,82.688110 216.146439,70.406342 
	C215.861847,70.357742 215.577271,70.309151 215.292679,70.260551 
	C210.909500,81.435860 206.426437,92.573738 202.214828,103.813339 
	C201.188034,106.553558 199.965515,107.739876 196.906967,107.676559 
	C194.171768,107.619926 192.821762,106.878914 191.825668,104.215042 
	C187.588531,92.883568 183.085999,81.651329 177.768906,70.414108 
	C175.845901,82.639999 173.922913,94.865891 171.966797,107.302299 
	C166.272736,107.302299 160.851181,107.302299 154.756485,107.302299 
	C158.595810,84.335594 162.394257,61.613468 166.266586,38.449280 
	C171.428360,38.449280 176.411835,38.221924 181.347214,38.608578 
	C182.586487,38.705666 184.203293,40.568584 184.740982,41.967945 
	C188.256149,51.116314 191.522339,60.360336 194.967743,69.949547 
z"/>
<path fill="#385B70" opacity="1.000000" stroke="none" 
	d="
M642.796753,106.984879 
	C615.940674,115.473091 590.709290,96.592041 592.673950,69.866013 
	C593.940674,52.634659 609.007446,38.002460 626.538696,36.978096 
	C645.915588,35.845882 662.510559,47.889069 666.031921,65.638817 
	C669.551941,83.381706 660.956116,98.892532 642.796753,106.984879 
M646.317139,82.595253 
	C646.706055,81.862999 647.151611,81.154839 647.475037,80.394730 
	C650.760010,72.673019 648.782593,64.204620 642.420044,58.657173 
	C636.333618,53.350460 627.300049,52.495037 620.044312,56.538269 
	C612.820374,60.563766 609.174927,68.182335 610.784241,76.310532 
	C612.309570,84.014626 616.860657,89.102318 624.528503,91.091263 
	C633.421326,93.397980 640.521484,90.548653 646.317139,82.595253 
z"/>
<path fill="#395D71" opacity="1.000000" stroke="none" 
	d="
M357.106323,92.993660 
	C357.106354,74.690994 357.106354,56.887241 357.106354,38.759514 
	C362.862152,38.759514 368.286957,38.759514 374.266632,38.759514 
	C374.266632,47.336300 374.266632,55.911949 374.266632,64.815445 
	C383.038208,64.815445 391.267334,64.815445 399.951447,64.815445 
	C399.951447,56.151508 399.951447,47.565563 399.951447,38.710602 
	C405.821350,38.710602 411.241455,38.710602 416.943604,38.710602 
	C416.943604,61.639744 416.943604,84.357910 416.943604,107.290642 
	C411.245514,107.290642 405.825378,107.290642 399.955200,107.290642 
	C399.955200,97.770950 399.955200,88.519455 399.955200,79.064804 
	C391.412262,79.064804 383.320221,79.064804 374.645325,79.064804 
	C374.645325,88.420418 374.645325,97.643089 374.645325,107.208145 
	C368.670624,107.208145 363.271088,107.208145 357.106323,107.208145 
	C357.106323,102.648041 357.106323,98.070305 357.106323,92.993660 
z"/>
<path fill="#385C70" opacity="1.000000" stroke="none" 
	d="
M518.768555,81.313110 
	C518.012146,80.183250 517.273804,78.966255 516.513184,78.952095 
	C508.882843,78.810104 501.248871,78.865761 493.152649,78.865761 
	C493.152649,88.491028 493.152649,97.751541 493.152649,107.281464 
	C487.264801,107.281464 481.843323,107.281464 476.159576,107.281464 
	C476.159576,84.478981 476.159576,61.875690 476.159576,38.854534 
	C481.663696,38.854534 487.183167,38.854534 493.014648,38.854534 
	C493.014648,47.472225 493.014648,55.935165 493.014648,64.772354 
	C501.539581,64.772354 509.773102,64.772354 518.564209,64.772354 
	C518.564209,56.320282 518.564209,47.746838 518.564209,38.809891 
	C524.500671,38.809891 529.898621,38.809891 535.643616,38.809891 
	C535.643616,61.523708 535.643616,84.249374 535.643616,107.269470 
	C530.228455,107.269470 524.806335,107.269470 518.776245,107.269470 
	C518.776245,98.670601 518.776245,90.227417 518.768555,81.313110 
z"/>
<path fill="#395C71" opacity="1.000000" stroke="none" 
	d="
M700.697144,38.437241 
	C718.932068,39.509094 727.392700,50.888927 723.053223,67.780380 
	C721.395203,74.234131 717.224670,78.437386 711.062012,81.390030 
	C717.316223,89.922310 723.461792,98.306396 730.229858,107.539795 
	C723.184692,107.539795 716.957275,107.703140 710.752686,107.399918 
	C709.533630,107.340347 708.090027,105.677437 707.284424,104.413368 
	C703.444458,98.388298 699.809326,92.233032 696.051270,86.155098 
	C695.255615,84.868286 694.250061,83.711281 692.198669,82.956207 
	C692.198669,90.984062 692.198669,99.011917 692.198669,107.297119 
	C686.216125,107.297119 680.801331,107.297119 675.134888,107.297119 
	C675.134888,84.356827 675.134888,61.647499 675.134888,38.436619 
	C683.657715,38.436619 691.945312,38.436619 700.697144,38.437241 
M696.362732,52.152866 
	C694.963745,52.261955 693.564758,52.371048 692.443970,52.458443 
	C692.443970,58.254101 692.443970,63.470581 692.443970,68.634628 
	C702.445496,69.225037 706.116272,67.201942 706.441711,61.170372 
	C706.757385,55.321686 704.168091,52.785320 696.362732,52.152866 
z"/>
<path fill="#484C63" opacity="1.000000" stroke="none" 
	d="
M57.957314,115.080513 
	C51.654263,117.667320 46.263077,117.468185 41.761372,112.196243 
	C41.175220,111.509819 40.067146,111.268181 39.199467,110.823166 
	C34.549778,108.438377 33.555855,104.185814 36.703972,100.142960 
	C40.694828,95.017876 40.048233,92.024124 34.374363,89.321136 
	C33.624096,88.963722 32.851379,88.630890 32.157642,88.180946 
	C27.071672,84.882301 21.850048,81.564941 21.952686,74.510246 
	C22.057722,67.290550 27.161158,63.314880 32.819305,60.847176 
	C37.924892,58.620457 39.770584,56.039875 38.824337,50.473175 
	C37.018009,39.846691 44.052540,34.088882 51.858829,29.187700 
	C55.061050,27.177189 58.783455,29.272501 60.996552,32.788418 
	C62.654480,35.422359 65.188835,37.573257 67.613472,39.604366 
	C68.171097,40.071487 69.988586,39.385441 71.035034,38.853703 
	C74.430969,37.128101 77.588013,34.841747 81.109642,33.472363 
	C89.285835,30.293053 96.341293,34.156960 97.996231,42.772682 
	C98.707062,46.473324 98.717171,50.396599 98.427795,54.171356 
	C98.224060,56.828873 99.083389,57.960964 101.312790,59.108944 
	C104.685997,60.845905 108.093437,62.740814 110.961296,65.184715 
	C115.861290,69.360336 115.699753,73.695084 114.748665,79.470528 
	C113.434456,87.451065 111.107719,92.101570 101.884262,90.080765 
	C99.784126,89.620644 98.101944,91.656456 98.384399,94.813484 
	C98.749901,98.898827 98.672882,103.191154 97.809273,107.182976 
	C96.187767,114.677963 89.978973,118.357361 82.723068,115.983742 
	C77.755424,114.358696 73.168831,111.568779 68.305374,109.248795 
	C65.224617,111.014351 61.777191,112.990051 57.957314,115.080513 
M80.092224,89.937950 
	C81.421547,87.825623 82.585190,85.584267 84.111023,83.624969 
	C88.830818,77.564369 88.279358,72.062752 84.324448,65.465210 
	C80.583092,59.223896 76.670425,56.174671 69.062378,56.591686 
	C62.341789,56.960060 57.591770,57.845860 53.643074,64.474617 
	C49.197868,71.936867 48.897449,77.774254 53.915833,84.729118 
	C56.900242,88.865135 58.942581,93.350067 65.242233,92.353088 
	C70.025887,91.596016 74.864548,91.186485 80.092224,89.937950 
M74.675339,41.035366 
	C73.807487,41.767982 72.939636,42.500603 72.270454,43.065506 
	C77.092110,51.776035 84.325294,55.958538 94.277298,55.685547 
	C94.458382,54.784679 94.791031,53.842010 94.815422,52.891434 
	C94.959618,47.271320 95.980049,41.019672 90.382751,37.466206 
	C84.801720,33.923061 80.000938,38.012821 74.675339,41.035366 
M91.784424,93.322975 
	C82.881195,93.884727 76.580711,98.420914 71.949478,106.674957 
	C75.475296,108.486618 78.898621,110.412910 82.461365,112.032494 
	C86.601265,113.914459 90.276810,113.143677 92.905167,109.241943 
	C95.654419,105.160736 95.698410,95.679413 93.090500,93.141884 
	C93.010468,93.064003 92.770378,93.150612 91.784424,93.322975 
M37.381172,62.676323 
	C34.342232,64.670845 30.986179,66.319443 28.341436,68.743973 
	C24.711473,72.071678 24.593937,76.946114 28.240398,80.241478 
	C31.552372,83.234566 35.630028,85.380402 39.691933,88.116508 
	C41.344086,83.507088 43.757126,80.005745 43.513199,76.700478 
	C43.144428,71.703575 40.926392,66.842621 39.431782,61.942928 
	C39.423462,61.915661 38.525146,62.159878 37.381172,62.676323 
M94.869751,79.719933 
	C95.679298,82.218842 96.488838,84.717751 97.298386,87.216652 
	C98.011497,87.788994 98.724609,88.361336 99.437729,88.933678 
	C99.900871,87.559219 100.421532,86.201103 100.817505,84.807556 
	C102.870369,77.583031 103.197006,77.339279 110.916489,77.622612 
	C113.263390,70.989548 107.410507,64.274193 97.083946,62.059353 
	C96.521759,67.751045 91.128204,72.624695 94.869751,79.719933 
M42.427513,48.695854 
	C42.668213,51.142853 42.908913,53.589851 43.132507,55.862938 
	C53.122959,55.643169 60.605461,51.874355 65.381966,42.457737 
	C63.385036,41.594139 60.509331,39.413342 59.507763,40.073959 
	C54.187855,43.582867 50.814079,41.249496 47.755531,37.036316 
	C43.244576,39.492527 43.127033,43.804276 42.427513,48.695854 
M60.914661,100.619499 
	C57.020557,93.705116 49.691975,94.817276 42.497551,92.600449 
	C43.090893,95.082069 42.939316,97.692490 44.003910,98.358284 
	C49.642372,101.884567 48.649567,106.029907 45.644112,110.475616 
	C51.307373,114.488503 58.644798,112.608711 65.365356,105.545128 
	C64.049637,104.089569 62.726727,102.626045 60.914661,100.619499 
M44.190472,88.314301 
	C46.968513,89.316162 49.746555,90.318031 53.902561,91.816841 
	C51.007030,86.976318 48.981438,83.590103 46.508774,79.456497 
	C45.531628,82.825905 44.848335,85.182037 44.190472,88.314301 
M91.496231,81.600113 
	C90.954727,81.436089 90.005821,81.022713 89.931274,81.144493 
	C88.039604,84.235130 86.239594,87.381866 83.913406,91.399895 
	C87.748085,90.391228 90.510498,89.664612 93.556526,88.863388 
	C92.869560,86.337906 92.317787,84.309410 91.496231,81.600113 
M67.375282,102.089111 
	C69.936829,100.626610 72.498367,99.164101 75.059914,97.701599 
	C74.798332,97.313942 74.536743,96.926277 74.275154,96.538620 
	C70.545532,96.538620 66.815910,96.538620 62.232159,96.538620 
	C64.202072,98.682823 65.534592,100.133240 67.375282,102.089111 
M84.918884,59.741501 
	C86.746719,62.741688 88.574554,65.741875 90.877037,69.521156 
	C91.922508,65.958862 92.692162,63.336388 93.768936,59.667423 
	C90.315269,59.455570 87.460114,59.280430 84.918884,59.741501 
M44.741245,63.716660 
	C45.291931,65.372795 45.842617,67.028931 46.718536,69.663193 
	C48.884644,65.762779 50.580956,62.708298 52.380211,59.468449 
	C46.104656,58.599575 44.748577,59.267727 44.741245,63.716660 
M65.037827,49.568768 
	C64.335800,50.523224 63.633766,51.477680 62.671696,52.785683 
	C67.023430,52.785683 70.669907,52.785683 74.991318,52.785683 
	C72.590202,50.259693 70.644119,48.212402 68.073631,45.508224 
	C67.108673,46.851559 66.339966,47.921680 65.037827,49.568768 
z"/>
<path fill="#3A5D72" opacity="1.000000" stroke="none" 
	d="
M287.472717,93.576241 
	C283.769867,82.557304 280.235321,71.897858 276.288910,59.996426 
	C274.293701,65.796455 272.661835,70.438972 271.098999,75.104645 
	C267.879028,84.717697 264.614288,94.317223 261.551727,103.980560 
	C260.723419,106.594025 259.577698,107.784752 256.663818,107.638176 
	C251.735687,107.390274 246.786041,107.570122 241.101089,107.570122 
	C245.465988,95.515755 249.580475,84.164658 253.686340,72.810440 
	C257.358704,62.654911 261.172729,52.546516 264.597931,42.308155 
	C265.647247,39.171654 267.169830,38.184696 270.317413,38.367161 
	C274.633972,38.617397 278.992798,38.216213 283.297272,38.554810 
	C284.691315,38.664474 286.737427,39.939163 287.189819,41.160706 
	C295.258911,62.949726 303.128357,84.812675 311.356812,107.532394 
	C305.080475,107.532394 299.355194,107.643578 293.643829,107.412201 
	C292.789642,107.377602 291.645660,105.870102 291.246033,104.813210 
	C289.896149,101.243431 288.821106,97.569710 287.472717,93.576241 
z"/>
<path fill="#3A5D71" opacity="1.000000" stroke="none" 
	d="
M752.387939,107.556435 
	C751.235901,106.494125 750.045715,105.483971 749.950073,104.379059 
	C749.678528,101.242111 749.472473,98.011513 749.918518,94.915443 
	C751.991882,80.523964 747.656860,68.407234 738.188538,57.521294 
	C733.340637,51.947590 729.630371,45.384434 724.842346,38.452618 
	C731.964417,38.452618 738.201355,38.321533 744.423096,38.571747 
	C745.562134,38.617554 746.896240,40.026646 747.700012,41.127804 
	C751.294312,46.052147 754.729126,51.092876 758.435181,56.397388 
	C762.151367,51.055126 765.509338,46.112255 769.014160,41.275734 
	C769.826477,40.154694 771.108337,38.643433 772.227905,38.596653 
	C778.457642,38.336330 784.703918,38.471699 791.977905,38.471699 
	C784.362427,49.491673 777.520081,59.651489 770.373291,69.592400 
	C767.917969,73.007607 766.832031,76.408241 766.956299,80.610634 
	C767.216187,89.398117 767.035034,98.198631 767.035034,107.565323 
	C762.079834,107.565323 757.464661,107.565323 752.387939,107.556435 
z"/>
<path fill="#3B5E72" opacity="1.000000" stroke="none" 
	d="
M569.158203,53.857327 
	C567.377869,53.933273 566.078552,54.009212 564.503967,54.101238 
	C564.503967,66.686745 564.503967,79.070511 564.503967,91.860649 
	C571.427307,91.860649 578.189758,91.860649 585.261780,91.860649 
	C585.261780,97.156387 585.261780,102.050179 585.261780,107.260422 
	C572.489563,107.260422 559.944214,107.260422 547.194519,107.260422 
	C547.194519,84.439011 547.194519,61.848934 547.194519,38.841461 
	C559.733093,38.841461 572.254456,38.841461 585.177490,38.841461 
	C585.177490,43.656597 585.177490,48.519539 585.177490,53.857319 
	C579.874817,53.857319 574.756958,53.857319 569.158203,53.857327 
z"/>
<path fill="#3E6175" opacity="1.000000" stroke="none" 
	d="
M351.018921,48.869373 
	C350.961273,50.652763 350.903625,51.959351 350.826202,53.714119 
	C346.256256,53.714119 341.836395,53.714119 336.893250,53.714119 
	C336.893250,71.705742 336.893250,89.249512 336.893250,107.189331 
	C330.829987,107.189331 325.291534,107.189331 319.245361,107.189331 
	C319.245361,89.525368 319.245361,71.976303 319.245361,53.955296 
	C314.352661,53.955296 309.937714,53.955296 305.217407,53.955296 
	C305.217407,48.739784 305.217407,43.991879 305.217407,38.824326 
	C320.318878,38.824326 335.485413,38.824326 351.018890,38.824326 
	C351.018890,42.116680 351.018890,45.254627 351.018921,48.869373 
z"/>
<path fill="#3A5D72" opacity="1.000000" stroke="none" 
	d="
M440.410339,107.560272 
	C439.285675,106.148018 438.055725,104.750206 438.042114,103.340660 
	C437.900757,88.683723 437.955048,74.024902 437.954987,59.366604 
	C437.954987,57.732048 437.954987,56.097496 437.954987,54.044907 
	C433.182953,54.044907 428.755127,54.044907 423.881653,54.044907 
	C423.881653,48.790905 423.881653,43.942654 423.881653,38.754616 
	C439.001587,38.754616 454.058899,38.754616 469.430542,38.754616 
	C469.430542,43.652588 469.430542,48.389313 469.430542,53.705414 
	C464.820648,53.705414 460.255829,53.705414 455.219452,53.705414 
	C455.219452,71.851692 455.219452,89.432426 455.219452,107.569260 
	C450.118317,107.569260 445.493988,107.569260 440.410339,107.560272 
z"/>
<path fill="#C6A4A4" opacity="1.000000" stroke="none" 
	d="
M267.844360,98.020004 
	C266.627563,91.933289 269.135132,87.676323 274.409454,86.325294 
	C278.554169,85.263618 282.971802,87.856621 284.532104,92.266876 
	C286.132507,96.790665 283.839081,101.950989 279.435852,103.733543 
	C274.643555,105.673607 270.628754,103.806450 267.844360,98.020004 
z"/>
<path fill="#C5A4A4" opacity="1.000000" stroke="none" 
	d="
M570.282104,78.640526 
	C567.484192,74.369385 567.260010,70.039345 570.742859,67.028542 
	C572.894714,65.168243 576.713867,64.236641 579.634033,64.507835 
	C583.647522,64.880562 586.201294,68.443497 585.807434,72.309097 
	C585.510864,75.219414 583.822205,78.721245 581.593689,80.535378 
	C577.935303,83.513573 573.793640,82.393723 570.282104,78.640526 
z"/>
<path fill="#FCFDFD" opacity="1.000000" stroke="none" 
	d="
M646.128052,82.918495 
	C640.521484,90.548653 633.421326,93.397980 624.528503,91.091263 
	C616.860657,89.102318 612.309570,84.014626 610.784241,76.310532 
	C609.174927,68.182335 612.820374,60.563766 620.044312,56.538269 
	C627.300049,52.495037 636.333618,53.350460 642.420044,58.657173 
	C648.782593,64.204620 650.760010,72.673019 647.475037,80.394730 
	C647.151611,81.154839 646.706055,81.862999 646.128052,82.918495 
z"/>
<path fill="#F8F9FA" opacity="1.000000" stroke="none" 
	d="
M696.799561,52.153008 
	C704.168091,52.785320 706.757385,55.321686 706.441711,61.170372 
	C706.116272,67.201942 702.445496,69.225037 692.443970,68.634628 
	C692.443970,63.470581 692.443970,58.254101 692.443970,52.458443 
	C693.564758,52.371048 694.963745,52.261955 696.799561,52.153008 
z"/>
<path fill="#F4F4F6" opacity="1.000000" stroke="none" 
	d="
M79.885483,90.280136 
	C74.864548,91.186485 70.025887,91.596016 65.242233,92.353088 
	C58.942581,93.350067 56.900242,88.865135 53.915833,84.729118 
	C48.897449,77.774254 49.197868,71.936867 53.643074,64.474617 
	C57.591770,57.845860 62.341789,56.960060 69.062378,56.591686 
	C76.670425,56.174671 80.583092,59.223896 84.324448,65.465210 
	C88.279358,72.062752 88.830818,77.564369 84.111023,83.624969 
	C82.585190,85.584267 81.421547,87.825623 79.885483,90.280136 
M78.126358,84.601646 
	C82.189346,80.015297 82.989311,74.901146 80.268730,69.425117 
	C77.992813,64.844131 73.946320,62.565128 68.993942,62.502205 
	C63.635967,62.434128 59.433125,64.837990 56.950146,69.814354 
	C54.413025,74.899231 55.683006,81.444885 59.977619,85.261108 
	C65.169373,89.874519 70.981590,89.829842 78.126358,84.601646 
z"/>
<path fill="#F8F8F9" opacity="1.000000" stroke="none" 
	d="
M74.965424,40.821156 
	C80.000938,38.012821 84.801720,33.923061 90.382751,37.466206 
	C95.980049,41.019672 94.959618,47.271320 94.815422,52.891434 
	C94.791031,53.842010 94.458382,54.784679 94.277298,55.685547 
	C84.325294,55.958538 77.092110,51.776035 72.270454,43.065506 
	C72.939636,42.500603 73.807487,41.767982 74.965424,40.821156 
z"/>
<path fill="#F8F9F9" opacity="1.000000" stroke="none" 
	d="
M92.194672,93.241753 
	C92.770378,93.150612 93.010468,93.064003 93.090500,93.141884 
	C95.698410,95.679413 95.654419,105.160736 92.905167,109.241943 
	C90.276810,113.143677 86.601265,113.914459 82.461365,112.032494 
	C78.898621,110.412910 75.475296,108.486618 71.949478,106.674957 
	C76.580711,98.420914 82.881195,93.884727 92.194672,93.241753 
z"/>
<path fill="#F8F8F9" opacity="1.000000" stroke="none" 
	d="
M37.711807,62.476822 
	C38.525146,62.159878 39.423462,61.915661 39.431782,61.942928 
	C40.926392,66.842621 43.144428,71.703575 43.513199,76.700478 
	C43.757126,80.005745 41.344086,83.507088 39.691933,88.116508 
	C35.630028,85.380402 31.552372,83.234566 28.240398,80.241478 
	C24.593937,76.946114 24.711473,72.071678 28.341436,68.743973 
	C30.986179,66.319443 34.342232,64.670845 37.711807,62.476822 
z"/>
<path fill="#F7F7F8" opacity="1.000000" stroke="none" 
	d="
M94.743668,79.346466 
	C91.128204,72.624695 96.521759,67.751045 97.083946,62.059353 
	C107.410507,64.274193 113.263390,70.989548 110.916489,77.622612 
	C103.197006,77.339279 102.870369,77.583031 100.817505,84.807556 
	C100.421532,86.201103 99.900871,87.559219 99.437729,88.933678 
	C98.724609,88.361336 98.011497,87.788994 97.298386,87.216652 
	C96.488838,84.717751 95.679298,82.218842 94.743668,79.346466 
z"/>
<path fill="#F7F7F8" opacity="1.000000" stroke="none" 
	d="
M42.469326,48.286949 
	C43.127033,43.804276 43.244576,39.492527 47.755531,37.036316 
	C50.814079,41.249496 54.187855,43.582867 59.507763,40.073959 
	C60.509331,39.413342 63.385036,41.594139 65.381966,42.457737 
	C60.605461,51.874355 53.122959,55.643169 43.132507,55.862938 
	C42.908913,53.589851 42.668213,51.142853 42.469326,48.286949 
z"/>
<path fill="#F7F7F8" opacity="1.000000" stroke="none" 
	d="
M61.159241,100.891006 
	C62.726727,102.626045 64.049637,104.089569 65.365356,105.545128 
	C58.644798,112.608711 51.307373,114.488503 45.644112,110.475616 
	C48.649567,106.029907 49.642372,101.884567 44.003910,98.358284 
	C42.939316,97.692490 43.090893,95.082069 42.497551,92.600449 
	C49.691975,94.817276 57.020557,93.705116 61.159241,100.891006 
z"/>
<path fill="#EBEBEE" opacity="1.000000" stroke="none" 
	d="
M44.177757,87.926239 
	C44.848335,85.182037 45.531628,82.825905 46.508774,79.456497 
	C48.981438,83.590103 51.007030,86.976318 53.902561,91.816841 
	C49.746555,90.318031 46.968513,89.316162 44.177757,87.926239 
z"/>
<path fill="#E9EAED" opacity="1.000000" stroke="none" 
	d="
M91.631119,81.940506 
	C92.317787,84.309410 92.869560,86.337906 93.556526,88.863388 
	C90.510498,89.664612 87.748085,90.391228 83.913406,91.399895 
	C86.239594,87.381866 88.039604,84.235130 89.931274,81.144493 
	C90.005821,81.022713 90.954727,81.436089 91.631119,81.940506 
z"/>
<path fill="#E7E8EB" opacity="1.000000" stroke="none" 
	d="
M67.121193,101.836380 
	C65.534592,100.133240 64.202072,98.682823 62.232159,96.538620 
	C66.815910,96.538620 70.545532,96.538620 74.275154,96.538620 
	C74.536743,96.926277 74.798332,97.313942 75.059914,97.701599 
	C72.498367,99.164101 69.936829,100.626610 67.121193,101.836380 
z"/>
<path fill="#EDEDEF" opacity="1.000000" stroke="none" 
	d="
M84.761917,59.423393 
	C87.460114,59.280430 90.315269,59.455570 93.768936,59.667423 
	C92.692162,63.336388 91.922508,65.958862 90.877037,69.521156 
	C88.574554,65.741875 86.746719,62.741688 84.761917,59.423393 
z"/>
<path fill="#EEEEF0" opacity="1.000000" stroke="none" 
	d="
M44.630981,63.344719 
	C44.748577,59.267727 46.104656,58.599575 52.380211,59.468449 
	C50.580956,62.708298 48.884644,65.762779 46.718536,69.663193 
	C45.842617,67.028931 45.291931,65.372795 44.630981,63.344719 
z"/>
<path fill="#F0F1F3" opacity="1.000000" stroke="none" 
	d="
M65.304543,49.280289 
	C66.339966,47.921680 67.108673,46.851559 68.073631,45.508224 
	C70.644119,48.212402 72.590202,50.259693 74.991318,52.785683 
	C70.669907,52.785683 67.023430,52.785683 62.671696,52.785683 
	C63.633766,51.477680 64.335800,50.523224 65.304543,49.280289 
z"/>
<path fill="#3E435A" opacity="1.000000" stroke="none" 
	d="
M77.858681,84.863678 
	C70.981590,89.829842 65.169373,89.874519 59.977619,85.261108 
	C55.683006,81.444885 54.413025,74.899231 56.950146,69.814354 
	C59.433125,64.837990 63.635967,62.434128 68.993942,62.502205 
	C73.946320,62.565128 77.992813,64.844131 80.268730,69.425117 
	C82.989311,74.901146 82.189346,80.015297 77.858681,84.863678 
z"/>
</svg>